<?xml version="1.0" standalone="no"?>
<!DOCTYPE svg PUBLIC "-//W3C//DTD SVG 20010904//EN"
 "http://www.w3.org/TR/2001/REC-SVG-20010904/DTD/svg10.dtd">
<svg version="1.0" xmlns="http://www.w3.org/2000/svg"
 width="573.000000pt" height="573.000000pt" viewBox="0 0 573.000000 573.000000"
 preserveAspectRatio="xMidYMid meet">
<metadata>
Created by potrace 1.11, written by Peter Selinger 2001-2013
</metadata>
<g transform="translate(0.000000,573.000000) scale(0.100000,-0.100000)"
fill="#000000" stroke="none">
<path d="M3740 5189 c-172 -60 -360 -185 -477 -314 l-61 -67 -23 31 c-48 65
-265 197 -434 264 -130 52 -189 63 -220 43 -16 -11 -25 -26 -25 -42 0 -25 62
-157 138 -293 l35 -64 -29 6 c-16 4 -103 10 -194 13 -245 10 -532 -16 -739
-65 -95 -23 -253 -71 -266 -81 -5 -4 -23 -10 -39 -14 -40 -10 -296 -133 -318
-153 -20 -18 -23 -40 -8 -63 7 -10 13 -11 18 -5 4 6 36 23 72 39 36 15 81 35
100 43 51 24 237 80 390 118 229 57 340 69 650 70 280 0 389 -6 463 -26 35 -9
43 -8 53 6 10 13 21 15 46 10 37 -7 152 -53 213 -85 49 -25 62 -25 70 -1 3 10
14 26 25 36 11 10 20 25 20 33 0 24 61 113 73 105 6 -4 7 -1 3 6 -12 18 126
148 225 212 82 53 193 109 219 109 24 0 2 -90 -40 -162 -22 -39 -40 -74 -40
-78 0 -15 -51 -70 -60 -65 -5 3 -10 2 -12 -2 -3 -7 -108 -61 -126 -64 -12 -3
-42 -58 -42 -80 0 -29 26 -34 56 -10 17 14 35 19 48 16 15 -5 17 -3 8 3 -10 6
1 12 35 21 26 6 62 17 78 22 48 17 216 23 291 10 87 -15 191 -48 226 -72 14
-11 29 -19 33 -19 10 0 178 -101 185 -110 3 -4 14 -10 25 -14 11 -3 83 -51
160 -106 152 -109 314 -220 321 -220 2 0 22 -11 44 -25 22 -14 59 -33 82 -42
24 -9 59 -30 77 -46 58 -50 90 -61 310 -103 21 -4 22 -7 10 -18 -23 -23 -167
-94 -279 -139 -107 -44 -127 -63 -83 -82 60 -26 190 -424 237 -723 18 -112 33
-380 23 -406 -7 -17 -30 6 -152 149 -83 97 -84 98 -101 91 -12 -5 -15 -14 -10
-34 26 -116 28 -151 23 -362 -3 -124 -10 -245 -17 -270 -6 -25 -18 -73 -26
-107 -14 -53 -19 -61 -36 -58 -21 4 -62 43 -89 84 -18 28 -48 23 -56 -8 -7
-28 -31 -15 -25 14 3 20 -1 27 -24 35 -68 26 -119 57 -175 108 -85 77 -193
239 -214 321 -8 35 -16 46 -31 46 -12 0 -20 -8 -22 -22 -5 -34 -182 -187 -321
-279 -29 -19 -55 -34 -57 -32 -2 2 7 25 19 51 14 28 72 97 148 175 69 71 147
158 173 195 25 36 59 70 74 77 47 19 72 34 72 42 0 5 10 8 22 8 25 0 100 77
129 133 11 21 21 57 22 79 1 34 -4 45 -32 70 -29 26 -40 29 -73 25 -52 -7 -63
-18 -108 -107 -85 -170 -361 -475 -545 -604 -65 -46 -242 -145 -320 -180 -22
-10 -61 -29 -87 -42 -81 -41 -85 -38 -76 59 17 179 31 273 49 343 36 138 155
407 176 399 7 -2 10 2 7 10 -12 29 210 285 246 285 16 0 11 36 -8 60 l-18 23
-82 -27 c-44 -14 -88 -26 -97 -26 -8 0 -15 -4 -15 -9 0 -6 -8 -9 -17 -9 -37 3
-95 -14 -165 -47 -127 -60 -352 -116 -332 -83 35 58 364 242 397 221 6 -3 7
-1 3 5 -4 7 -1 12 9 12 8 0 47 11 86 25 40 14 98 25 135 27 35 1 64 6 64 10 0
4 7 8 15 8 8 0 15 9 15 20 0 60 -228 48 -397 -21 -77 -32 -103 -43 -158 -71
-113 -58 -160 -90 -227 -155 -96 -92 -80 -199 29 -195 32 1 43 -10 23 -23 -16
-10 -58 -97 -60 -125 -6 -71 -1 -89 32 -106 46 -24 104 -13 189 35 104 59 111
63 153 99 30 24 31 28 -58 -157 -27 -56 -246 -283 -391 -406 -62 -52 -115 -95
-118 -95 -2 0 -3 10 -2 23 1 12 -2 103 -7 202 -8 152 -7 196 7 282 18 109 14
143 -15 143 -19 0 -25 -13 -51 -115 -7 -27 -22 -72 -34 -100 -12 -27 -30 -70
-41 -95 -24 -57 -81 -155 -100 -171 -8 -6 -14 -17 -14 -23 0 -7 -11 -23 -24
-36 l-25 -22 1 23 c0 13 7 75 15 138 13 101 13 116 0 129 -9 8 -22 12 -30 9
-15 -5 -40 -114 -76 -327 -43 -254 -90 -462 -143 -643 -20 -66 -20 -67 -38
-47 -10 11 -24 35 -31 52 -7 18 -20 39 -29 48 -14 14 -110 202 -153 300 -58
131 -139 405 -150 505 -2 22 -9 51 -15 65 -6 14 -18 50 -26 81 -12 42 -22 58
-41 67 -67 31 -117 -45 -131 -196 -7 -79 -2 -73 -84 -87 -19 -3 -52 -17 -74
-31 -54 -36 -176 -72 -176 -53 0 16 52 69 62 63 5 -3 8 -2 7 3 -3 19 2 34 10
29 5 -4 11 -1 13 5 2 5 37 43 77 84 61 60 73 77 68 97 -4 13 -19 29 -34 35
-15 7 -73 37 -128 67 -55 31 -135 73 -177 93 -42 21 -77 41 -78 44 -1 27 252
40 335 18 104 -27 115 -17 116 104 1 100 -10 127 -50 127 -20 0 -44 15 -82 50
-30 28 -59 50 -66 50 -6 0 -13 5 -15 11 -4 13 -108 26 -108 14 0 -4 9 -18 20
-32 11 -14 20 -31 20 -38 0 -7 6 -18 14 -24 15 -12 42 -124 33 -138 -3 -5 -36
-10 -74 -11 -37 -2 -90 -9 -117 -17 -27 -8 -60 -12 -75 -10 -18 4 -21 3 -8 -3
15 -6 12 -10 -21 -25 -43 -19 -68 -55 -59 -86 7 -27 -27 -33 -153 -28 -69 3
-117 12 -175 31 -100 34 -207 85 -199 97 3 5 -1 7 -8 4 -7 -3 -44 18 -83 47
-38 28 -64 53 -57 56 7 2 9 8 6 14 -4 7 -9 6 -14 -2 -10 -15 -30 -4 -30 16 0
8 14 33 32 55 23 28 34 36 40 27 5 -9 8 -8 8 6 0 13 5 16 16 12 13 -5 14 -3 6
7 -11 13 -4 21 107 116 13 11 29 18 35 14 6 -3 8 -3 4 2 -10 10 19 38 32 30 6
-3 7 1 4 9 -3 9 -2 16 3 16 5 0 27 15 48 34 22 19 87 69 145 111 104 75 148
109 174 132 8 7 16 9 20 6 3 -4 6 0 6 7 0 7 3 11 6 7 7 -6 44 35 62 69 10 19
9 23 -13 28 -31 8 -75 -14 -225 -112 -192 -126 -345 -246 -483 -380 -202 -195
-200 -218 18 -384 46 -35 74 -68 120 -142 60 -98 114 -161 195 -228 25 -20 42
-39 40 -41 -3 -2 -52 -25 -110 -51 -141 -63 -290 -148 -329 -188 -32 -33 -39
-65 -20 -100 14 -26 121 -75 271 -124 l117 -38 -72 -39 c-81 -44 -127 -74
-144 -97 -17 -21 -16 -56 3 -74 32 -32 248 -13 374 32 30 11 56 19 58 17 2 -2
-6 -25 -17 -52 -36 -83 -51 -172 -51 -297 0 -122 18 -226 46 -257 8 -8 14 -25
14 -36 0 -38 45 -67 114 -71 121 -8 232 32 379 135 70 48 79 52 73 32 -10 -36
-20 -233 -13 -260 4 -13 20 -39 37 -57 l30 -33 -30 -31 c-49 -49 -231 -266
-290 -347 -104 -141 -169 -253 -204 -350 -38 -105 -53 -127 -95 -137 -31 -8
-36 -13 -39 -42 l-3 -32 2023 2 2023 3 40 29 c49 35 108 109 123 155 7 19 12
70 12 114 0 174 -64 307 -217 451 -59 55 -172 141 -197 149 -7 3 -5 16 7 42
10 21 22 60 28 88 6 32 19 59 36 76 32 32 98 169 113 236 15 67 15 191 0 254
-12 50 -11 53 31 150 l43 99 33 -29 c20 -17 45 -29 62 -29 50 0 66 32 107 210
36 159 38 172 38 358 l1 193 30 -38 c100 -128 156 -154 196 -91 20 31 20 43
15 238 -5 209 -21 342 -57 485 -38 153 -93 320 -136 420 -24 55 -43 103 -43
107 0 4 10 10 23 13 44 14 224 107 284 148 34 23 69 55 78 70 15 26 15 30 1
52 -11 16 -26 25 -43 25 -49 0 -265 41 -337 64 -58 18 -93 39 -167 97 -98 77
-315 242 -359 272 -14 9 -79 55 -145 102 -283 200 -444 264 -664 265 l-105 0
26 28 c74 78 119 183 134 313 6 51 4 58 -17 73 -29 20 -50 19 -119 -5z m-1970
-2839 c91 -46 117 -84 161 -230 65 -217 223 -528 305 -602 26 -22 71 -39 89
-32 45 17 105 174 150 389 9 43 21 74 31 80 67 40 138 92 189 139 47 44 61 52
64 38 13 -65 55 -56 159 33 48 42 88 71 90 65 2 -5 -4 -29 -13 -53 -32 -85 16
-128 97 -88 46 22 132 97 160 140 l18 26 0 -47 c0 -56 29 -155 47 -162 7 -3
25 1 40 9 15 8 48 15 73 15 25 0 63 5 85 10 38 9 61 -1 49 -22 -8 -12 32 -28
70 -28 34 0 91 28 181 90 36 25 43 26 60 14 29 -22 68 -17 130 16 31 17 59 30
60 30 2 0 -3 -12 -11 -27 -32 -62 -3 -102 58 -81 36 13 129 65 195 110 23 15
44 28 47 28 2 0 19 -26 37 -57 18 -32 46 -77 62 -100 l30 -43 -7 -202 c-3
-112 -9 -257 -12 -323 l-6 -120 56 -85 c78 -117 88 -157 61 -246 -29 -97 -159
-242 -310 -344 -41 -27 -79 -50 -85 -50 -5 0 -47 20 -93 44 -80 43 -136 63
-287 104 -127 35 -208 43 -382 41 l-167 -2 -60 41 c-32 23 -99 61 -148 85 -52
25 -117 66 -154 98 -204 177 -460 330 -602 359 -67 14 -133 5 -147 -18 -8 -13
-9 -11 -4 10 5 22 -2 34 -35 67 -23 23 -44 41 -48 41 -3 0 -30 -12 -59 -26
-68 -33 -116 -39 -201 -24 -126 22 -221 98 -285 229 -46 96 -58 153 -58 281 0
193 43 298 153 373 49 33 110 36 167 7z m2922 -667 c41 -48 68 -111 68 -160
l0 -51 -30 26 c-16 15 -30 34 -30 43 0 43 -47 46 -102 7 l-28 -19 0 73 c0 44
5 79 12 86 19 19 92 15 110 -5z"/>
<path d="M1654 2185 c-4 -8 -12 -15 -19 -15 -33 0 -63 -88 -35 -105 15 -9 12
-42 -5 -68 -23 -35 -26 -158 -5 -204 35 -78 103 -130 180 -136 23 -2 45 -8 48
-15 22 -34 123 -38 184 -6 61 32 43 54 -44 54 -54 0 -58 2 -58 23 0 13 14 44
30 70 17 26 30 56 30 66 0 23 -82 191 -121 248 -41 59 -103 103 -146 103 -21
0 -36 -6 -39 -15z"/>
<path d="M3110 2027 c-26 -22 -54 -96 -65 -172 -6 -38 -5 -41 23 -51 69 -26
91 -128 38 -183 -15 -16 -45 -33 -65 -38 -35 -8 -36 -11 -39 -57 -6 -89 66
-146 124 -98 34 29 43 54 54 153 6 52 20 157 31 233 22 147 20 203 -8 223 -26
20 -65 15 -93 -10z"/>
<path d="M4194 1838 c-21 -25 -45 -89 -65 -177 -11 -53 -11 -55 12 -73 60 -45
77 -76 65 -120 -7 -28 -64 -68 -108 -77 -61 -13 -65 -115 -5 -151 43 -26 69
-25 105 5 21 17 32 39 40 77 6 29 21 96 32 149 40 194 45 334 12 372 -21 24
-65 21 -88 -5z"/>
<path d="M3150 1070 c-6 -12 -10 -41 -8 -67 2 -36 9 -50 30 -66 56 -42 181
-32 297 23 39 19 68 27 75 22 6 -5 65 -28 131 -50 185 -63 273 -66 295 -7 21
56 -34 104 -61 54 -10 -19 -17 -21 -63 -16 -28 3 -87 17 -132 31 -45 14 -111
28 -148 31 -38 3 -71 7 -76 10 -4 2 -38 -4 -76 -14 -145 -39 -204 -37 -204 6
0 55 -39 83 -60 43z"/>
<path d="M3228 4473 c-42 -26 -61 -87 -39 -122 5 -8 6 -24 1 -35 -6 -16 2 -41
26 -91 37 -74 45 -129 27 -181 -16 -47 7 -94 45 -94 36 0 47 12 62 70 14 54
25 70 92 138 29 30 58 50 66 47 7 -2 11 -1 8 4 -6 10 36 41 55 41 36 0 -34
-166 -91 -218 -32 -28 -40 -42 -40 -69 0 -45 36 -63 83 -44 61 25 132 42 174
42 37 0 146 46 190 81 7 5 18 6 24 2 7 -4 9 -3 6 3 -4 6 17 18 51 28 31 9 63
18 70 21 15 4 16 38 1 62 -8 13 -21 16 -56 13 -43 -3 -44 -2 -34 17 20 37 13
96 -12 120 -42 39 -135 28 -200 -25 -16 -13 -32 -23 -37 -23 -8 0 -25 48 -22
63 1 4 -14 15 -33 24 -30 14 -43 15 -78 6 -23 -6 -43 -10 -45 -8 -2 2 -10 21
-17 42 -8 21 -14 32 -15 25 0 -9 -15 -2 -39 17 -76 61 -167 78 -223 44z"/>
<path d="M995 4400 c-13 -22 36 -183 85 -279 25 -51 25 -51 -8 -51 -42 0 -219
-28 -280 -44 -105 -28 -150 -79 -105 -118 22 -18 247 -86 312 -94 25 -3 61
-10 79 -16 23 -7 37 -6 46 1 14 12 10 55 -4 46 -4 -3 -19 4 -31 16 -13 11 -17
18 -9 16 8 -2 26 0 40 5 25 10 39 12 164 26 38 4 71 12 73 19 2 6 -19 35 -46
63 -28 29 -51 56 -51 61 0 4 -18 27 -40 51 -27 30 -38 49 -34 62 4 12 2 16 -5
12 -6 -4 -15 3 -20 16 -5 13 -20 48 -35 77 -14 30 -23 58 -19 64 3 6 1 7 -4 4
-6 -4 -16 7 -23 24 -18 42 -69 65 -85 39z"/>
<path d="M2783 4279 c-17 -17 -5 -37 36 -59 48 -26 94 -68 86 -79 -3 -5 0 -13
6 -17 8 -4 9 -3 5 4 -4 7 -4 12 0 12 14 0 93 -96 116 -140 32 -63 71 -95 98
-80 39 21 22 89 -43 175 -34 44 -127 146 -127 139 0 -2 -9 4 -19 13 -11 9 -18
19 -16 23 4 6 -1 7 -80 16 -32 3 -54 1 -62 -7z"/>
<path d="M2860 4160 c0 -5 5 -10 11 -10 5 0 7 5 4 10 -3 6 -8 10 -11 10 -2 0
-4 -4 -4 -10z"/>
<path d="M3161 3944 c0 -11 3 -14 6 -6 3 7 2 16 -1 19 -3 4 -6 -2 -5 -13z"/>
<path d="M835 3530 c-3 -5 -2 -10 4 -10 5 0 13 5 16 10 3 6 2 10 -4 10 -5 0
-13 -4 -16 -10z"/>
<path d="M2273 1636 c12 -18 24 -32 25 -30 6 4 -31 64 -40 64 -4 0 3 -15 15
-34z"/>
</g>
</svg>
