<?xml version="1.0" standalone="no"?>
<!DOCTYPE svg PUBLIC "-//W3C//DTD SVG 20010904//EN"
 "http://www.w3.org/TR/2001/REC-SVG-20010904/DTD/svg10.dtd">
<svg version="1.0" xmlns="http://www.w3.org/2000/svg"
 width="341.000000pt" height="341.000000pt" viewBox="0 0 341.000000 341.000000"
 preserveAspectRatio="xMidYMid meet">
<metadata>
Created by potrace 1.11, written by Peter Selinger 2001-2013
</metadata>
<g transform="translate(0.000000,341.000000) scale(0.100000,-0.100000)"
fill="#000000" stroke="none">
<path d="M2201 3075 c-83 -32 -186 -101 -245 -165 l-48 -51 -21 23 c-79 85
-345 209 -382 178 -22 -18 -20 -25 35 -133 28 -55 50 -100 50 -101 0 -1 -37 2
-82 6 -124 11 -367 -8 -489 -38 -167 -42 -379 -132 -379 -161 0 -18 9 -17 76
13 80 35 267 88 389 110 117 21 451 25 525 6 32 -8 46 -8 51 0 10 15 73 2 131
-28 46 -23 49 -24 67 -7 10 10 26 33 35 51 25 49 82 108 152 158 63 45 152 90
160 81 9 -9 -15 -80 -44 -132 -22 -39 -40 -55 -85 -78 -48 -25 -79 -59 -65
-72 2 -3 33 8 68 22 55 23 80 27 160 27 64 -1 111 -7 145 -18 75 -26 233 -119
353 -207 59 -43 139 -95 177 -115 39 -21 84 -47 100 -60 17 -13 64 -29 110
-39 44 -9 81 -18 83 -20 6 -6 -80 -52 -158 -86 -89 -37 -88 -36 -68 -52 36
-28 114 -270 137 -422 14 -94 21 -226 12 -249 -6 -16 -17 -7 -72 57 -35 41
-66 76 -69 76 -3 1 -3 -67 -1 -150 3 -150 -18 -331 -41 -345 -5 -3 -25 11 -44
31 -33 36 -36 37 -49 19 -14 -18 -16 -17 -19 8 0 6 -19 21 -41 33 -87 49 -171
147 -201 234 -13 37 -34 54 -34 27 0 -9 -19 -33 -41 -54 -52 -46 -169 -132
-181 -132 -20 0 30 70 107 151 45 47 90 98 100 113 10 15 43 41 72 58 109 61
142 178 51 178 -23 0 -34 -9 -56 -47 -72 -122 -235 -301 -339 -371 -68 -46
-254 -142 -275 -142 -17 0 -8 144 16 242 33 142 115 295 205 383 45 43 66 85
44 85 -15 0 -208 -60 -288 -88 -90 -33 -145 -45 -145 -33 0 42 238 161 362
181 34 5 63 11 65 14 14 14 -15 26 -62 26 -154 0 -425 -146 -425 -230 0 -31
22 -50 60 -50 l21 0 -22 -31 c-14 -20 -23 -48 -23 -73 l-1 -41 50 0 c42 1 60
7 113 43 34 24 62 38 62 32 0 -6 -13 -36 -29 -68 -36 -70 -115 -159 -231 -257
l-88 -75 -7 133 c-3 75 -2 153 3 181 16 80 -9 109 -28 34 -23 -88 -82 -214
-125 -263 l-26 -30 6 86 c4 55 3 89 -4 93 -5 4 -12 2 -15 -2 -3 -5 -19 -87
-36 -182 -32 -176 -81 -385 -97 -415 -8 -14 -14 -10 -35 23 -75 113 -177 370
-194 487 -3 28 -10 55 -14 60 -4 6 -13 27 -19 48 -24 72 -74 37 -88 -63 -8
-50 -11 -55 -38 -60 -17 -4 -48 -16 -70 -27 -44 -23 -105 -39 -105 -28 0 4 34
42 76 85 64 66 73 79 61 91 -8 8 -64 41 -125 74 -75 40 -108 63 -101 70 9 9
154 11 219 3 24 -3 25 -1 28 65 3 66 -1 73 -31 68 -5 -1 -24 12 -42 28 -32 28
-72 47 -81 39 -2 -2 6 -28 17 -58 11 -29 18 -58 15 -65 -3 -8 -30 -14 -68 -17
-83 -5 -142 -34 -146 -70 -2 -21 -9 -28 -25 -29 -122 -8 -259 38 -370 124 -20
16 -37 35 -37 42 0 18 155 162 252 234 141 104 188 143 188 157 0 27 -29 13
-163 -76 -143 -96 -333 -264 -343 -305 -8 -33 7 -56 71 -105 31 -24 75 -72
101 -111 25 -38 66 -87 93 -111 l47 -42 -116 -57 c-123 -61 -173 -99 -168
-126 5 -27 59 -58 152 -88 l86 -28 -61 -36 c-73 -43 -90 -68 -63 -89 23 -17
133 -9 202 15 24 8 45 13 47 11 2 -2 -5 -28 -15 -58 -28 -79 -27 -206 2 -287
19 -54 26 -64 55 -74 57 -19 167 15 250 77 17 13 34 24 38 24 3 0 3 -34 -1
-76 -6 -68 -5 -78 15 -105 l22 -30 -38 -46 c-167 -199 -215 -269 -269 -389
-27 -62 -42 -84 -58 -86 -11 -2 -22 -11 -24 -21 -3 -16 59 -17 1198 -17 1345
0 1232 -6 1284 73 38 60 37 159 -3 242 -28 59 -117 156 -188 204 -31 21 -32
22 -17 56 8 19 14 44 14 55 0 11 5 20 10 20 6 0 27 34 47 75 35 74 36 78 31
172 -5 87 -3 101 19 149 l24 54 30 -22 c29 -22 29 -22 49 -2 32 32 60 179 60
324 l0 125 43 -48 c41 -46 77 -61 92 -37 4 6 6 73 6 148 -2 188 -41 368 -117
539 -13 31 -23 57 -22 58 2 1 41 21 88 44 99 48 156 92 148 113 -4 10 -40 21
-110 33 -133 23 -152 31 -256 113 -141 110 -363 268 -417 295 -78 39 -152 57
-232 57 l-74 0 30 38 c69 86 92 224 37 222 -6 -1 -40 -12 -75 -25z m-249
-1700 c-5 -118 7 -159 47 -151 14 3 53 8 86 12 41 4 82 18 131 44 l71 37 10
-28 c8 -20 18 -29 33 -29 28 0 123 52 180 98 85 70 76 68 101 20 12 -24 30
-53 40 -66 16 -20 17 -45 14 -265 l-3 -242 34 -55 c46 -74 46 -128 3 -193 -34
-52 -102 -115 -167 -157 l-42 -28 -53 28 c-28 16 -92 41 -142 56 -80 24 -109
28 -255 30 -154 3 -167 4 -190 25 -243 216 -416 322 -522 323 -32 1 -58 4 -58
9 0 4 -10 17 -21 28 -21 21 -23 21 -68 5 -25 -9 -59 -16 -75 -16 -87 0 -168
57 -213 148 -25 51 -28 67 -28 162 0 89 4 111 22 146 44 83 108 113 171 80 46
-24 68 -58 101 -156 63 -185 167 -360 214 -360 25 0 56 62 83 167 13 54 29
112 34 128 5 17 11 47 13 67 3 27 18 53 52 90 25 28 54 66 63 82 l17 31 5 -90
c5 -89 12 -115 31 -115 5 0 38 23 72 51 34 28 71 58 82 67 11 8 45 37 74 64
30 26 55 48 56 48 0 0 -1 -43 -3 -95z m860 -397 c30 -43 29 -128 -2 -211 l-22
-58 -34 53 c-18 29 -34 60 -34 69 0 9 18 30 40 48 22 17 40 36 40 41 0 13 -47
13 -55 0 -14 -22 -25 -7 -25 33 0 51 4 57 41 57 20 0 34 -9 51 -32z m-1475
-183 c47 -7 143 -62 249 -142 96 -72 106 -84 57 -72 -131 32 -180 39 -313 39
-144 1 -220 -8 -292 -36 -21 -7 -38 -10 -38 -5 0 17 154 150 212 183 31 18 58
39 58 47 0 9 4 10 13 3 6 -5 31 -13 54 -17z"/>
<path d="M991 1296 c-10 -12 -8 -17 10 -26 22 -12 22 -12 -13 -45 -41 -36 -56
-72 -38 -89 9 -8 17 -5 33 15 12 15 34 34 49 44 l27 17 28 -56 c26 -55 27 -57
10 -85 -20 -34 -22 -82 -5 -99 23 -23 118 -9 118 18 0 6 -18 10 -40 10 -47 0
-51 14 -19 67 l21 34 -23 47 c-40 79 -79 131 -109 147 -35 18 -35 18 -49 1z"/>
<path d="M1851 1199 c-11 -12 -24 -42 -29 -66 -10 -43 -9 -46 20 -72 49 -44
35 -110 -28 -125 -28 -7 -32 -40 -8 -74 33 -48 73 -11 85 80 4 35 14 103 20
151 14 92 8 119 -24 125 -8 2 -24 -7 -36 -19z"/>
<path d="M2494 1088 c-5 -7 -15 -40 -24 -72 l-17 -60 29 -24 c46 -39 37 -81
-25 -107 -28 -12 -37 -21 -37 -39 0 -52 58 -75 84 -33 24 38 51 178 51 262 0
79 0 80 -27 83 -14 2 -30 -3 -34 -10z"/>
<path d="M1877 634 c-4 -4 -7 -20 -7 -35 0 -61 90 -76 192 -31 l43 18 70 -26
c100 -39 141 -45 171 -25 40 26 26 69 -15 43 -16 -10 -31 -10 -73 0 -117 27
-190 34 -234 23 -24 -6 -59 -11 -78 -11 -28 0 -35 4 -38 22 -3 22 -19 33 -31
22z"/>
<path d="M1916 2645 c-19 -20 -15 -86 8 -140 13 -28 16 -52 12 -86 -5 -35 -3
-49 9 -59 20 -16 41 0 48 38 3 16 29 50 61 80 53 50 86 66 86 40 -1 -24 -37
-93 -64 -121 -49 -53 -25 -81 47 -52 23 9 57 17 76 17 19 0 60 14 95 33 34 18
74 36 89 39 39 9 33 40 -9 44 -28 3 -30 6 -26 33 9 60 -47 78 -110 35 l-35
-24 -14 32 c-12 27 -19 31 -51 30 -31 -1 -45 6 -78 37 -35 33 -47 39 -85 39
-26 0 -50 -6 -59 -15z"/>
<path d="M595 2588 c4 -18 19 -63 34 -99 l28 -66 -94 -13 c-107 -14 -158 -36
-158 -65 0 -16 14 -25 65 -41 77 -26 190 -48 199 -39 3 4 -5 15 -18 24 -23 17
-23 19 -5 24 10 3 42 9 69 12 89 12 90 12 58 50 -58 71 -74 96 -100 152 -30
66 -50 93 -70 93 -11 0 -13 -8 -8 -32z"/>
<path d="M1660 2535 c0 -8 5 -15 10 -15 18 0 108 -90 141 -141 33 -53 40 -57
58 -35 18 22 -16 81 -87 149 -47 44 -67 57 -91 57 -21 0 -31 -5 -31 -15z"/>
</g>
</svg>
